<?xml version="1.0" standalone="no"?>
<!DOCTYPE svg PUBLIC "-//W3C//DTD SVG 20010904//EN"
 "http://www.w3.org/TR/2001/REC-SVG-20010904/DTD/svg10.dtd">
<svg version="1.0" xmlns="http://www.w3.org/2000/svg"
 width="258.000000pt" height="196.000000pt" viewBox="0 0 258.000000 196.000000"
 preserveAspectRatio="xMidYMid meet">

<g transform="translate(0.000000,196.000000) scale(0.100000,-0.100000)"
fill="#000000" stroke="none">
<path d="M2 1133 c2 -633 6 -827 15 -826 12 3 10 -27 -2 -47 -6 -10 7 -14 33
-11 14 2 15 -8 2 -29 -6 -9 -5 -17 3 -22 9 -6 9 -10 -2 -17 -10 -6 -19 -3 -31
12 -17 20 -18 17 -19 -86 l-2 -107 216 0 c133 0 215 4 215 10 0 6 9 5 24 -1
17 -8 29 -8 45 0 14 8 21 8 21 1 0 -6 60 -10 173 -9 105 0 164 4 152 9 -11 5
-36 6 -55 3 -28 -4 -33 -3 -23 7 6 7 9 18 7 25 -4 9 3 11 20 8 14 -3 26 -9 26
-13 0 -4 28 -6 63 -5 35 2 50 0 33 -4 -16 -3 -31 -12 -34 -18 -3 -10 41 -13
198 -13 185 0 201 1 189 16 -20 25 -19 44 3 44 18 0 48 21 48 34 0 3 -8 6 -17
7 -14 0 -13 2 5 9 12 5 22 12 22 15 0 4 -5 3 -10 0 -6 -3 -13 0 -16 9 -3 8
-12 12 -19 10 -10 -4 -12 1 -8 16 3 13 11 19 19 16 8 -3 14 1 14 9 0 8 5 15
11 15 5 0 7 5 3 11 -5 8 9 9 47 4 59 -8 69 -12 69 -25 0 -5 -8 -6 -17 -3 -16
6 -17 5 -3 -12 14 -17 13 -18 -4 -12 -11 4 -40 5 -65 1 -36 -6 -42 -9 -26 -15
11 -4 33 -8 49 -8 24 -1 27 -3 16 -16 -10 -12 -15 -13 -20 -4 -10 16 -33 1
-26 -18 4 -9 1 -12 -7 -8 -6 4 -3 -1 7 -9 19 -15 33 -51 16 -41 -5 3 -10 -5
-13 -17 -3 -22 -4 -22 -12 -3 -11 27 -23 34 -47 28 -19 -6 -19 -30 1 -25 6 1
11 -4 11 -12 0 -10 16 -13 60 -14 34 0 58 4 54 9 -3 5 -10 7 -15 4 -5 -4 -9
-1 -9 4 0 6 6 11 14 11 7 0 19 6 25 14 10 12 8 13 -9 9 -21 -5 -50 20 -49 42
0 6 3 4 6 -2 8 -21 40 -15 58 10 12 15 19 18 22 10 3 -7 21 -13 42 -13 24 0
45 -7 60 -21 28 -27 22 -44 -15 -43 -16 1 -37 2 -47 3 -10 1 -16 5 -13 9 3 5
-1 9 -9 9 -18 0 -20 -23 -2 -30 9 -4 9 -6 0 -6 -7 -1 -13 -5 -13 -10 0 -5 51
-9 113 -10 102 -2 114 0 135 19 18 17 26 19 37 10 8 -7 22 -10 31 -6 8 3 28
-1 44 -9 24 -12 90 -15 394 -14 l366 0 0 239 c0 181 -3 240 -12 243 -10 4 -10
6 0 6 9 1 12 155 12 736 l0 735 -222 -2 c-123 -1 -203 -4 -178 -6 25 -2 49 -7
54 -13 6 -5 28 -9 50 -10 45 0 85 -13 70 -21 -5 -3 -27 -9 -49 -13 -22 -4 -45
-11 -52 -17 -7 -5 -17 -7 -22 -4 -5 4 -14 -2 -20 -11 -6 -10 -11 -12 -11 -5 0
14 -42 16 -56 2 -5 -5 -42 -11 -82 -13 -75 -4 -96 -12 -72 -27 8 -6 11 -10 5
-10 -5 0 -3 -5 5 -10 12 -8 10 -10 -9 -10 -24 0 -24 0 -5 -15 10 -8 33 -15 49
-15 26 -1 27 -3 10 -10 -11 -5 -40 -9 -65 -10 -25 -1 -40 -4 -33 -6 24 -10 1
-34 -34 -34 -20 0 -32 -4 -28 -10 4 -6 -7 -10 -27 -9 -67 3 -137 -4 -132 -12
3 -5 -7 -10 -23 -10 -22 -2 -20 -3 12 -9 31 -6 34 -8 15 -10 -14 -2 -29 -4
-35 -5 -5 -2 -14 -3 -20 -4 -5 -1 -3 -6 5 -11 13 -8 13 -10 -1 -10 -9 0 -32
-3 -50 -6 -26 -4 -30 -3 -19 5 12 9 10 11 -10 11 -37 0 -101 -20 -95 -30 3 -4
-1 -11 -7 -13 -7 -3 10 -6 37 -8 36 -1 41 -3 20 -6 -16 -3 -34 -8 -40 -13 -5
-4 -25 -11 -42 -15 -32 -6 -39 -1 -34 28 2 14 -57 7 -63 -8 -4 -10 -20 -15
-51 -15 -43 0 -60 12 -32 23 9 4 9 8 -2 15 -11 8 -11 10 0 14 8 3 -11 3 -41 0
-30 -3 -58 -10 -62 -15 -8 -14 -86 -18 -94 -6 -3 5 3 9 13 9 15 0 16 2 3 10
-8 5 -27 10 -42 10 -21 0 -28 5 -28 19 0 11 -9 21 -21 24 -12 3 -18 10 -15 15
3 6 0 13 -6 15 -10 4 -9 6 1 6 30 2 -12 31 -45 31 -18 0 -35 4 -38 8 -3 5 -24
9 -46 10 -23 1 -48 8 -55 16 -12 11 -1 13 70 10 49 -2 86 0 90 6 3 6 -1 10
-10 10 -9 0 -13 5 -10 10 3 6 0 10 -7 11 -7 0 -67 5 -133 9 -66 4 -133 11
-149 15 -19 5 -27 4 -23 -2 4 -6 21 -14 39 -17 18 -4 53 -11 78 -16 36 -7 31
-8 -25 -3 -38 4 -88 6 -110 6 -30 -1 -35 1 -22 8 30 17 18 29 -30 30 -83 2
-127 2 -153 2 -86 -3 -133 1 -115 7 22 8 25 7 -50 24 -11 2 3 5 30 5 28 0 83
3 123 7 50 4 72 3 72 -5 0 -8 -19 -9 -57 -6 -46 4 -53 3 -34 -5 14 -6 43 -10
65 -10 23 1 60 -2 83 -6 48 -8 116 3 108 17 -8 11 67 12 116 0 21 -5 42 -5 49
-1 6 4 -7 10 -32 14 -82 14 -123 24 -105 25 41 3 2 21 -46 21 -70 0 -48 22 29
28 130 11 11 19 -311 20 l-345 2 2 -827z m467 801 c2 -2 -34 -4 -80 -3 -57 0
-78 3 -64 9 18 8 134 3 144 -6z m68 -20 c-3 -3 -12 -4 -19 -1 -8 3 -5 6 6 6
11 1 17 -2 13 -5z m51 -35 c62 1 65 0 50 -15 -12 -13 -26 -15 -66 -9 -28 4
-57 14 -64 23 -11 13 -11 14 1 8 7 -5 43 -8 79 -7z m1688 -21 c4 -7 3 -8 -4
-4 -7 4 -12 2 -12 -3 0 -6 -7 -11 -15 -11 -8 0 -15 5 -15 11 0 5 5 7 10 4 6
-3 10 -1 10 4 0 15 17 14 26 -1z m-229 -34 c-3 -3 -12 -4 -19 -1 -8 3 -5 6 6
6 11 1 17 -2 13 -5z m235 -50 c-33 -14 -57 -11 -47 7 4 5 23 9 43 8 l37 -1
-33 -14z m-255 0 c-3 -3 -12 -4 -19 -1 -8 3 -5 6 6 6 11 1 17 -2 13 -5z m193
-4 c0 -5 -15 -10 -32 -10 -25 0 -29 3 -18 10 20 13 50 13 50 0z m-173 -56 c-3
-3 -12 -4 -19 -1 -8 3 -5 6 6 6 11 1 17 -2 13 -5z m-1380 -20 c-3 -3 -12 -4
-19 -1 -8 3 -5 6 6 6 11 1 17 -2 13 -5z m60 -10 c-3 -3 -12 -4 -19 -1 -8 3 -5
6 6 6 11 1 17 -2 13 -5z m210 -20 c-3 -3 -12 -4 -19 -1 -8 3 -5 6 6 6 11 1 17
-2 13 -5z m848 -22 c-3 -3 -11 0 -18 7 -9 10 -8 11 6 5 10 -3 15 -9 12 -12z
m468 -19 c-7 -2 -19 -2 -25 0 -7 3 -2 5 12 5 14 0 19 -2 13 -5z m-693 -33
c-19 -13 -30 -13 -30 0 0 6 10 10 23 10 18 0 19 -2 7 -10z m239 6 c-12 -10
-59 -15 -59 -6 0 5 14 10 32 10 17 0 29 -2 27 -4z m-724 -16 c3 -6 -4 -10 -17
-10 -18 0 -20 2 -8 10 19 12 18 12 25 0z m621 -18 c-4 -24 -31 -26 -72 -7 -19
9 -34 17 -34 18 0 1 24 3 54 4 45 1 54 -2 52 -15z m-131 -22 c3 -5 -1 -10 -9
-10 -9 0 -16 5 -16 10 0 6 4 10 9 10 6 0 13 -4 16 -10z m-190 -20 c4 -6 2 -17
-4 -24 -6 -7 -8 -16 -4 -20 4 -4 -1 -4 -12 0 -37 13 -40 18 -15 25 20 6 17 7
-17 8 -24 1 -43 6 -43 11 0 13 87 13 95 0z m-1178 -186 c-3 -3 -12 -4 -19 -1
-8 3 -5 6 6 6 11 1 17 -2 13 -5z m2318 -54 c3 -6 -1 -7 -9 -4 -18 7 -21 14 -7
14 6 0 13 -4 16 -10z m-2225 -570 c0 -5 7 -10 16 -10 9 0 14 -7 12 -17 -2 -10
3 -23 12 -30 8 -7 10 -13 4 -13 -6 0 -19 9 -29 20 -10 11 -22 17 -27 14 -6 -4
-8 2 -4 14 5 15 2 22 -11 25 -14 4 -13 5 5 6 12 0 22 -3 22 -9z m-45 -50 c-17
-19 -17 -20 0 -20 14 0 15 -3 5 -15 -14 -17 -14 -17 60 -19 38 -1 54 -5 52
-13 -1 -7 5 -13 13 -13 17 0 49 -45 42 -58 -10 -15 12 -37 38 -37 14 -1 25 2
25 6 0 11 -39 18 -44 8 -2 -5 -3 -4 -2 3 5 23 31 20 60 -7 15 -14 32 -23 37
-20 5 4 9 4 9 1 0 -2 3 -12 7 -22 4 -11 3 -15 -5 -10 -6 3 -13 2 -16 -3 -3 -5
-22 -12 -41 -15 -19 -4 -35 -10 -35 -15 0 -14 -29 -8 -35 7 -4 10 0 12 11 8
22 -9 50 14 32 25 -9 6 -4 9 15 9 15 0 27 5 27 10 0 9 -27 7 -67 -5 -7 -3 -15
6 -19 20 -3 13 -12 26 -20 29 -7 3 -11 12 -8 21 4 11 0 15 -16 15 -11 0 -19 4
-16 9 4 5 -3 7 -14 4 -11 -3 -27 0 -35 7 -8 7 -15 9 -15 5 0 -4 8 -14 18 -21
15 -11 12 -13 -25 -11 -38 1 -53 17 -16 17 9 0 13 3 10 7 -4 3 -2 12 5 20 10
12 7 13 -15 8 -15 -4 -35 -4 -44 0 -10 5 -24 9 -32 11 -7 1 -19 8 -25 15 -8 9
-7 10 7 6 9 -4 17 -2 17 3 0 5 -9 12 -21 15 -11 4 -18 9 -15 12 3 3 16 -1 29
-10 22 -14 25 -14 47 13 13 16 26 27 29 25 2 -3 -4 -14 -14 -25z m2250 10 c3
-5 2 -10 -4 -10 -5 0 -13 5 -16 10 -3 6 -2 10 4 10 5 0 13 -4 16 -10z m-1849
-55 c9 -14 14 -31 11 -39 -3 -8 1 -17 9 -20 24 -9 16 -23 -13 -23 -16 0 -37
-3 -47 -8 -15 -7 -18 -5 -14 7 5 12 0 14 -20 10 -21 -4 -24 -2 -19 12 4 10 7
27 7 37 0 11 5 17 10 14 6 -3 10 3 10 14 0 31 45 28 66 -4z m349 5 c3 -5 -3
-10 -15 -10 -12 0 -18 5 -15 10 3 6 10 10 15 10 5 0 12 -4 15 -10z m-565 -25
c0 -8 -7 -15 -15 -15 -16 0 -20 12 -8 23 11 12 23 8 23 -8z m-231 -4 c9 -6 10
-11 2 -15 -6 -4 -11 -2 -11 4 0 7 -7 9 -16 6 -8 -3 -12 -2 -9 4 8 12 16 12 34
1z m-159 -31 c0 -5 -7 -7 -15 -4 -8 4 -15 8 -15 10 0 2 7 4 15 4 8 0 15 -4 15
-10z m50 0 c13 -8 13 -10 -2 -10 -9 0 -20 5 -23 10 -8 13 5 13 25 0z m420 -5
c0 -8 5 -15 12 -15 6 0 9 -3 5 -6 -3 -3 -15 0 -26 8 -12 8 -18 18 -14 21 11
12 23 8 23 -8z m590 -25 c0 -5 -7 -10 -15 -10 -8 0 -15 5 -15 10 0 6 7 10 15
10 8 0 15 -4 15 -10z m-892 -30 c6 0 12 -6 12 -13 0 -8 11 -24 25 -37 24 -22
35 -47 16 -36 -5 3 -8 -17 -7 -44 1 -45 3 -49 23 -46 12 3 27 -2 33 -9 9 -11
7 -13 -15 -9 -17 3 -25 0 -24 -8 3 -27 -2 -38 -17 -38 -14 0 -15 -2 -3 -17 13
-17 13 -17 -6 -1 -15 12 -20 28 -19 57 2 31 -2 41 -13 41 -11 0 -14 7 -9 25 5
18 2 25 -8 25 -9 0 -31 8 -50 18 -27 13 -35 23 -34 42 2 31 36 62 63 55 11 -3
26 -5 33 -5z m762 0 c0 -5 -4 -10 -10 -10 -5 0 -10 5 -10 10 0 6 5 10 10 10 6
0 10 -4 10 -10z m1422 -8 c7 -26 -66 -47 -88 -25 -28 28 -14 41 47 42 28 1 38
-4 41 -17z m-1392 -2 c0 -5 -5 -10 -11 -10 -5 0 -7 5 -4 10 3 6 8 10 11 10 2
0 4 -4 4 -10z m-630 -15 c0 -17 -2 -18 -24 -9 -23 9 -20 24 4 24 11 0 20 -7
20 -15z m508 3 c-3 -7 4 -20 14 -30 21 -21 23 -38 5 -38 -8 0 -19 11 -25 25
-6 14 -16 25 -22 25 -6 0 -8 -5 -5 -10 3 -6 -1 -17 -9 -26 -15 -14 -19 -13
-46 6 -16 12 -30 29 -30 38 1 15 2 15 13 1 7 -8 23 -18 35 -22 21 -5 23 -3 18
16 -4 19 -1 22 25 24 19 2 29 -2 27 -9z m-226 -48 c7 -11 18 -20 25 -20 24 0
23 -21 -2 -46 -14 -14 -26 -36 -27 -49 l-2 -24 -23 21 c-13 12 -21 24 -18 26
3 3 12 -3 20 -14 14 -19 14 -19 15 2 0 11 6 26 13 33 10 10 9 11 -5 6 -10 -4
-18 -3 -18 3 0 6 6 12 13 15 9 3 8 9 -5 22 -14 15 -20 16 -32 5 -13 -10 -16
-10 -16 3 0 15 25 36 42 37 4 0 13 -9 20 -20z m890 -4 c3 -14 0 -30 -5 -35 -8
-8 -3 -11 15 -11 15 0 29 -4 33 -10 3 -5 13 -6 23 -3 9 3 14 3 10 -1 -3 -4 0
-23 8 -41 19 -46 18 -50 -13 -64 -19 -9 -29 -9 -31 -2 -2 6 -11 11 -19 11 -10
0 -13 6 -9 16 3 8 2 13 -3 9 -5 -3 -11 -1 -13 4 -1 5 -15 7 -30 4 -23 -4 -26
-8 -17 -24 5 -11 6 -19 2 -19 -4 0 -2 -5 5 -12 7 -7 12 -17 12 -22 0 -6 -5 -3
-11 7 -5 9 -17 17 -24 17 -8 0 -15 7 -15 16 0 10 -4 12 -12 7 -14 -8 -19 -10
-45 -12 -13 -1 -14 -4 -6 -9 7 -5 9 -13 4 -21 -7 -11 -10 -9 -15 6 -4 12 -17
20 -37 21 -17 1 -39 6 -48 11 -18 9 -41 4 -41 -9 0 -4 9 -6 21 -3 17 5 20 2
17 -17 -3 -21 -8 -23 -65 -24 -35 -1 -63 2 -63 6 0 4 -13 8 -28 8 -24 0 -28 4
-27 27 0 31 17 40 37 19 19 -18 66 -9 81 15 7 12 24 19 42 19 l30 1 -24 13
c-24 13 -56 11 -78 -6 -8 -6 -15 -3 -22 11 -9 16 -8 22 8 31 37 19 90 12 116
-16 22 -24 26 -25 40 -10 19 18 41 21 50 6 10 -16 45 -12 45 5 0 18 30 20 31
3 1 -21 28 45 29 70 0 13 4 20 10 17 6 -3 10 -1 10 4 0 21 18 10 22 -13z m63
14 c19 -8 19 -9 -2 -9 -12 -1 -28 -3 -36 -6 -8 -4 -14 0 -14 10 0 16 21 19 52
5z m921 -42 c5 -8 2 -9 -9 -5 -12 4 -17 1 -17 -10 0 -13 -3 -14 -11 -6 -6 6
-8 16 -5 22 9 14 33 14 42 -1z m-1761 -19 c10 -30 0 -33 -13 -4 -6 14 -7 25
-2 25 5 0 12 -9 15 -21z m35 10 c0 -8 4 -8 13 0 10 8 19 6 35 -9 12 -11 28
-20 36 -20 22 0 46 -11 46 -22 0 -5 -4 -6 -10 -3 -5 3 -10 1 -10 -4 0 -6 5
-11 11 -11 5 0 7 -4 4 -10 -10 -16 -23 -12 -29 8 -5 14 -17 19 -50 20 -36 2
-45 -1 -49 -18 -7 -26 -23 -26 -23 -1 0 11 5 17 10 14 5 -4 7 9 3 30 -3 21 -2
37 4 37 5 0 9 -5 9 -11z m920 4 c-1 -8 -70 -43 -84 -43 -16 0 8 23 38 36 36
15 46 17 46 7z m-994 -79 c-4 -16 -14 -24 -27 -24 -11 0 -17 5 -14 10 3 6 -2
10 -12 11 -11 0 -13 3 -5 6 6 2 10 9 6 14 -3 5 -1 9 5 9 5 0 13 -4 16 -10 13
-21 27 -9 22 19 -3 16 -3 32 1 36 10 9 15 -42 8 -71z m1374 52 c0 -3 -4 -8
-10 -11 -5 -3 -10 -1 -10 4 0 6 5 11 10 11 6 0 10 -2 10 -4z m-1530 -38 c0 -5
6 -6 13 -2 8 5 8 2 -2 -9 -7 -9 -10 -17 -5 -17 4 0 3 -5 -3 -11 -8 -8 -8 -20
-3 -34 13 -34 -13 -39 -39 -9 -27 31 -26 34 4 34 16 0 25 6 25 15 0 9 -11 21
-25 27 -38 17 -33 40 5 27 17 -6 30 -15 30 -21z m1244 -10 c-3 -12 0 -16 13
-13 10 1 23 -2 29 -6 7 -6 21 0 37 16 29 30 72 26 80 -5 6 -23 -10 -37 -40
-34 -13 0 -23 -3 -23 -8 0 -5 -4 -7 -9 -3 -6 3 -6 -6 -1 -23 4 -16 4 -36 -1
-43 -7 -12 -9 -11 -9 1 -1 12 -3 11 -11 -3 -8 -13 -14 -15 -30 -7 -10 6 -19
19 -19 29 0 20 -45 73 -54 64 -13 -13 -5 -33 13 -33 11 0 23 -5 26 -10 4 -6 1
-9 -7 -8 -7 2 -12 -3 -10 -11 3 -12 0 -12 -12 -2 -20 17 -41 4 -25 -15 16 -20
-5 -18 -25 2 -14 14 -20 11 -18 -7 1 -4 -8 -9 -18 -12 -11 -3 -18 -2 -16 1 2
4 -2 13 -10 20 -14 13 -19 5 -15 -20 1 -10 -31 -10 -47 0 -16 11 -2 50 25 73
15 12 22 13 30 3 7 -6 9 -15 5 -19 -4 -4 3 -3 14 3 12 6 24 8 28 5 3 -3 6 1 6
10 0 9 7 17 16 17 8 0 12 -4 9 -10 -3 -5 -3 -10 0 -10 3 0 11 13 16 30 6 16
15 28 20 25 4 -3 11 6 15 21 5 19 9 22 15 12 5 -7 6 -21 3 -30z m330 36 c-7
-3 -10 -14 -7 -25 4 -14 2 -18 -10 -13 -20 7 -54 -10 -38 -20 6 -4 11 -3 11 2
0 6 16 10 35 9 49 -1 42 -26 -10 -34 -10 -2 -22 -7 -25 -11 -3 -5 -20 -14 -37
-21 -18 -7 -30 -17 -27 -22 3 -5 -2 -9 -10 -9 -9 0 -16 -4 -16 -8 0 -4 9 -8
19 -8 11 0 17 4 15 8 -8 13 19 8 46 -8 23 -14 23 -14 2 -9 -15 4 -24 1 -28 -9
-3 -9 -11 -13 -18 -9 -11 8 -32 13 -53 15 -9 1 -10 5 -2 15 9 10 7 13 -7 14
-11 1 -22 1 -26 0 -5 0 -8 3 -8 8 0 13 28 22 35 11 9 -14 47 8 42 23 -3 7 -10
11 -16 9 -6 -1 -11 2 -11 7 0 12 29 35 48 37 8 2 19 10 24 18 5 9 18 16 28 16
11 0 20 5 20 10 0 6 8 10 18 9 9 0 12 -3 6 -5z m258 -10 c-5 -8 -19 -21 -32
-27 -13 -7 -25 -18 -26 -25 -1 -7 0 -8 3 -2 7 14 25 12 20 -2 -5 -16 -67 -18
-67 -3 0 5 -7 2 -15 -9 -7 -10 -18 -15 -24 -11 -15 9 -14 28 2 20 6 -4 3 1 -8
10 -19 16 -18 16 27 12 40 -5 52 -1 85 24 44 33 47 34 35 13z m55 -10 c-3 -3
-12 -4 -19 -1 -8 3 -5 6 6 6 11 1 17 -2 13 -5z m-2344 -29 c-3 -9 -8 -14 -10
-11 -3 3 -2 9 2 15 9 16 15 13 8 -4z m401 7 c3 -5 -1 -9 -9 -9 -8 0 -12 4 -9
9 3 4 7 8 9 8 2 0 6 -4 9 -8z m-421 -17 c3 -8 14 -12 25 -10 10 2 25 -1 33 -6
12 -7 12 -9 -1 -9 -11 -1 -10 -4 4 -15 29 -22 8 -34 -44 -25 -34 5 -41 9 -27
15 17 7 17 8 0 25 -10 10 -22 15 -28 12 -5 -3 -4 2 4 11 17 21 27 22 34 2z
m750 8 c-7 -2 -13 -9 -13 -15 0 -6 7 -7 16 -4 8 3 12 2 9 -4 -11 -18 -35 -11
-35 10 0 13 6 20 18 19 10 0 12 -3 5 -6z m1396 -35 c1 -5 -4 -8 -10 -8 -5 0
-8 4 -5 9 3 5 -4 12 -17 15 -21 7 -21 7 -2 15 19 8 32 -4 34 -31z m174 18 c5
-12 -2 -14 -31 -7 -2 1 0 6 3 11 9 14 22 12 28 -4z m-2063 -6 c8 -5 11 -10 5
-10 -5 0 -17 5 -25 10 -8 5 -10 10 -5 10 6 0 17 -5 25 -10z m1186 -12 c-1 -13
3 -30 8 -38 10 -13 9 -13 -6 -1 -10 7 -15 17 -12 22 3 5 1 9 -4 9 -5 0 -9 7
-9 15 0 8 6 15 12 15 7 0 11 -10 11 -22z m-839 0 c11 15 12 13 2 -10 -7 -15
-15 -25 -19 -23 -14 9 -20 -26 -8 -45 14 -22 3 -39 -14 -22 -7 7 -16 8 -23 2
-6 -5 -17 -5 -24 -1 -11 7 -9 11 8 21 13 7 20 17 17 26 -3 9 1 14 12 14 15 0
15 2 2 11 -11 8 -12 12 -2 16 6 2 9 10 6 16 -4 7 1 4 11 -5 17 -16 19 -16 32
0z m33 -44 c0 -2 -7 -4 -15 -4 -8 0 -15 4 -15 10 0 5 7 7 15 4 8 -4 15 -8 15
-10z m116 -11 c-7 -7 -26 7 -26 19 0 6 6 6 15 -2 9 -7 13 -15 11 -17z m1094 3
c0 -3 -4 -8 -10 -11 -5 -3 -10 -1 -10 4 0 6 5 11 10 11 6 0 10 -2 10 -4z m437
-18 c-3 -8 -6 -5 -6 6 -1 11 2 17 5 13 3 -3 4 -12 1 -19z m-1847 -20 c0 -6 -7
-5 -15 2 -8 7 -15 17 -15 22 0 6 7 5 15 -2 8 -7 15 -17 15 -22z m227 26 c-3
-3 -12 -4 -19 -1 -8 3 -5 6 6 6 11 1 17 -2 13 -5z m271 -20 c2 -14 1 -15 -6
-6 -5 8 -16 10 -27 5 -17 -6 -18 -5 -5 10 18 20 34 17 38 -9z m145 20 c3 -4
-4 -15 -16 -26 -12 -11 -16 -16 -9 -13 11 6 12 3 4 -11 -14 -25 -49 -54 -56
-47 -10 10 -7 25 3 18 5 -3 12 -1 16 5 8 12 -25 13 -44 1 -9 -6 -21 -5 -32 2
-16 10 -13 13 19 25 20 8 45 14 54 15 9 1 16 4 16 7 -2 21 5 30 20 30 10 0 21
-3 25 -6z m1050 -1 c-7 -2 -19 -2 -25 0 -7 3 -2 5 12 5 14 0 19 -2 13 -5z
m-1803 -7 c0 -2 3 -12 7 -22 4 -11 3 -15 -5 -10 -6 3 -14 1 -17 -4 -5 -7 -12
-5 -21 7 -19 26 -17 33 11 33 14 0 25 -2 25 -4z m290 -42 c0 -8 -4 -14 -10
-14 -5 0 -10 9 -10 21 0 11 5 17 10 14 6 -3 10 -13 10 -21z m883 -1 c-7 -17
-23 -21 -65 -15 -67 8 -41 29 33 28 23 -1 35 -5 32 -13z m82 7 c3 -5 1 -10 -4
-10 -6 0 -11 5 -11 10 0 6 2 10 4 10 3 0 8 -4 11 -10z m-1510 -10 c3 -5 1 -10
-4 -10 -6 0 -11 5 -11 10 0 6 2 10 4 10 3 0 8 -4 11 -10z m1785 1 c0 -5 -7
-11 -15 -15 -15 -5 -20 5 -8 17 9 10 23 9 23 -2z m190 -41 c-10 -6 -17 -4 -23
6 -13 23 3 38 22 20 14 -15 14 -18 1 -26z m-155 20 c3 -5 1 -10 -4 -10 -6 0
-11 5 -11 10 0 6 2 10 4 10 3 0 8 -4 11 -10z m350 1 c-9 -8 -36 -10 -30 -2 2
4 11 8 20 8 8 0 13 -3 10 -6z m-2065 -22 c0 -6 7 -9 15 -5 10 3 15 -1 16 -12
1 -16 2 -16 6 1 2 9 8 17 13 17 5 0 15 3 24 6 11 4 14 1 12 -13 -7 -35 -40
-93 -53 -93 -15 0 -17 16 -3 25 14 9 12 28 -2 23 -17 -6 -45 25 -40 43 3 8 -2
6 -10 -4 -15 -20 -65 -21 -61 -2 4 19 83 33 83 14z m769 -9 c4 0 8 -6 8 -14 0
-8 -6 -12 -14 -9 -7 3 -13 10 -13 15 0 6 -7 7 -16 4 -9 -3 -12 -2 -9 5 4 6 14
8 22 5 8 -3 18 -6 22 -6z m616 -17 c-2 -13 1 -23 6 -23 6 0 7 -4 4 -10 -10
-16 -41 10 -41 34 0 14 6 22 18 22 13 0 17 -6 13 -23z m409 17 c18 -6 24 -14
19 -26 -3 -8 -9 -12 -12 -7 -7 9 -31 10 -46 2 -9 -5 -56 -5 -100 0 -11 2 7 11
40 21 76 22 69 22 99 10z m101 -10 c-3 -5 2 -10 12 -11 16 0 5 -9 -14 -11 -5
-1 -13 -8 -20 -17 -10 -13 -12 -13 -13 -2 0 8 7 23 17 33 17 19 28 24 18 8z
m-321 -6 c8 -3 12 -12 9 -20 -3 -10 -10 -11 -23 -4 -9 5 -27 7 -39 5 -21 -4
-28 5 -14 18 8 9 46 9 67 1z m-1404 -24 c0 -25 -51 -33 -73 -11 -8 8 -5 11 10
11 12 0 24 4 28 10 6 10 35 2 35 -10z m1450 16 c0 -3 -4 -8 -10 -11 -5 -3 -10
-1 -10 4 0 6 5 11 10 11 6 0 10 -2 10 -4z m-803 -12 c-3 -3 -12 -4 -19 -1 -8
3 -5 6 6 6 11 1 17 -2 13 -5z m1163 -14 c0 -5 -2 -10 -4 -10 -3 0 -8 5 -11 10
-3 6 -1 10 4 10 6 0 11 -4 11 -10z m-2088 -22 c-2 -10 -11 -18 -18 -18 -16 0
-16 2 -9 23 9 21 33 17 27 -5z m842 14 c3 -5 -1 -9 -9 -9 -8 0 -12 4 -9 9 3 4
7 8 9 8 2 0 6 -4 9 -8z m211 -22 c3 -6 -1 -7 -9 -4 -18 7 -21 14 -7 14 6 0 13
-4 16 -10z m-288 -6 c-3 -3 -12 -4 -19 -1 -8 3 -5 6 6 6 11 1 17 -2 13 -5z"/>
<path d="M1125 270 c-3 -5 -1 -10 4 -10 6 0 11 5 11 10 0 6 -2 10 -4 10 -3 0
-8 -4 -11 -10z"/>
<path d="M1236 252 c-3 -6 -1 -14 5 -17 14 -9 20 -2 10 14 -6 8 -11 9 -15 3z"/>
<path d="M1910 311 c0 -5 7 -11 15 -15 9 -3 15 0 15 9 0 8 -7 15 -15 15 -8 0
-15 -4 -15 -9z"/>
<path d="M1620 200 c0 -5 5 -10 10 -10 6 0 10 5 10 10 0 6 -4 10 -10 10 -5 0
-10 -4 -10 -10z"/>
<path d="M2005 80 c3 -5 8 -10 11 -10 2 0 4 5 4 10 0 6 -5 10 -11 10 -5 0 -7
-4 -4 -10z"/>
<path d="M1996 1951 c-3 -4 6 -6 19 -3 14 2 25 6 25 8 0 8 -39 4 -44 -5z"/>
<path d="M2138 1923 c6 -2 18 -2 25 0 6 3 1 5 -13 5 -14 0 -19 -2 -12 -5z"/>
<path d="M886 1908 c3 -4 21 -8 41 -8 20 0 33 3 29 7 -10 10 -76 11 -70 1z"/>
<path d="M2208 1913 c-16 -2 -28 -9 -28 -15 0 -6 10 -8 23 -4 12 3 36 6 52 6
23 0 27 3 15 10 -8 5 -19 9 -25 8 -5 0 -22 -3 -37 -5z"/>
<path d="M733 1893 c9 -2 25 -2 35 0 9 3 1 5 -18 5 -19 0 -27 -2 -17 -5z"/>
<path d="M2013 1883 c9 -2 25 -2 35 0 9 3 1 5 -18 5 -19 0 -27 -2 -17 -5z"/>
<path d="M1683 1834 c3 -3 22 -9 41 -14 39 -9 51 4 14 14 -29 7 -63 8 -55 0z"/>
<path d="M1910 1816 c0 -9 39 -13 51 -5 10 6 4 9 -18 9 -18 0 -33 -2 -33 -4z"/>
<path d="M1828 1793 c6 -2 18 -2 25 0 6 3 1 5 -13 5 -14 0 -19 -2 -12 -5z"/>
<path d="M888 1743 c7 -3 16 -2 19 1 4 3 -2 6 -13 5 -11 0 -14 -3 -6 -6z"/>
<path d="M1773 1743 c9 -2 25 -2 35 0 9 3 1 5 -18 5 -19 0 -27 -2 -17 -5z"/>
<path d="M1860 1740 c-24 -8 -24 -8 5 -9 17 0 37 4 45 9 12 8 11 10 -5 9 -11
-1 -31 -5 -45 -9z"/>
<path d="M1535 1640 c28 -12 55 -12 55 0 0 6 -17 10 -37 9 -31 0 -34 -2 -18
-9z"/>
<path d="M1608 1633 c7 -3 16 -2 19 1 4 3 -2 6 -13 5 -11 0 -14 -3 -6 -6z"/>
<path d="M1085 1620 c-3 -5 1 -10 10 -10 9 0 13 5 10 10 -3 6 -8 10 -10 10 -2
0 -7 -4 -10 -10z"/>
<path d="M1388 1613 c10 -4 10 -8 1 -19 -9 -11 -8 -14 4 -14 21 0 29 27 11 34
-9 3 -19 6 -22 5 -4 0 -1 -3 6 -6z"/>
<path d="M1135 1590 c-3 -5 1 -10 9 -10 9 0 16 5 16 10 0 6 -4 10 -9 10 -6 0
-13 -4 -16 -10z"/>
<path d="M1430 14 c0 -8 5 -12 10 -9 6 3 10 10 10 16 0 5 -4 9 -10 9 -5 0 -10
-7 -10 -16z"/>
</g>
</svg>
